<svg width="13" height="771" viewBox="0 0 13 771" fill="none" xmlns="http://www.w3.org/2000/svg">
<rect width="13" height="2" fill="#1A3F66"/>
<rect y="4" width="13" height="2" fill="#1A3F66"/>
<rect y="6" width="13" height="2" fill="#265A7B"/>
<rect y="2" width="13" height="2" fill="#4D87A9"/>
<rect y="8" width="13" height="2" fill="#4D87A9"/>
<rect y="10" width="13" height="2" fill="#1A3F66"/>
<rect y="14" width="13" height="2" fill="#1A3F66"/>
<rect y="16" width="13" height="2" fill="#265A7B"/>
<rect y="12" width="13" height="2" fill="#4D87A9"/>
<rect y="18" width="13" height="2" fill="#4D87A9"/>
<rect y="20" width="13" height="2" fill="#1A3F66"/>
<rect y="24" width="13" height="2" fill="#1A3F66"/>
<rect y="26" width="13" height="2" fill="#265A7B"/>
<rect y="22" width="13" height="2" fill="#4D87A9"/>
<rect y="28" width="13" height="2" fill="#4D87A9"/>
<rect y="30" width="13" height="2" fill="#1A3F66"/>
<rect y="34" width="13" height="2" fill="#1A3F66"/>
<rect y="36" width="13" height="2" fill="#265A7B"/>
<rect y="32" width="13" height="2" fill="#4D87A9"/>
<rect y="38" width="13" height="2" fill="#4D87A9"/>
<rect y="40" width="13" height="2" fill="#1A3F66"/>
<rect y="44" width="13" height="2" fill="#1A3F66"/>
<rect y="46" width="13" height="2" fill="#265A7B"/>
<rect y="42" width="13" height="2" fill="#4D87A9"/>
<rect y="48" width="13" height="2" fill="#4D87A9"/>
<rect y="50" width="13" height="2" fill="#1A3F66"/>
<rect y="54" width="13" height="2" fill="#1A3F66"/>
<rect y="56" width="13" height="2" fill="#265A7B"/>
<rect y="52" width="13" height="2" fill="#4D87A9"/>
<rect y="58" width="13" height="2" fill="#4D87A9"/>
<rect y="60" width="13" height="2" fill="#1A3F66"/>
<rect y="64" width="13" height="2" fill="#1A3F66"/>
<rect y="66" width="13" height="2" fill="#265A7B"/>
<rect y="62" width="13" height="2" fill="#4D87A9"/>
<rect y="68" width="13" height="2" fill="#4D87A9"/>
<rect y="70" width="13" height="2" fill="#1A3F66"/>
<rect y="74" width="13" height="2" fill="#1A3F66"/>
<rect y="76" width="13" height="2" fill="#265A7B"/>
<rect y="72" width="13" height="2" fill="#4D87A9"/>
<rect y="78" width="13" height="2" fill="#4D87A9"/>
<rect y="80" width="13" height="2" fill="#1A3F66"/>
<rect y="84" width="13" height="2" fill="#1A3F66"/>
<rect y="86" width="13" height="2" fill="#265A7B"/>
<rect y="82" width="13" height="2" fill="#4D87A9"/>
<rect y="88" width="13" height="2" fill="#4D87A9"/>
<rect y="90" width="13" height="2" fill="#1A3F66"/>
<rect y="94" width="13" height="2" fill="#1A3F66"/>
<rect y="96" width="13" height="2" fill="#265A7B"/>
<rect y="92" width="13" height="2" fill="#4D87A9"/>
<rect y="98" width="13" height="2" fill="#4D87A9"/>
<rect y="100" width="13" height="2" fill="#1A3F66"/>
<rect y="104" width="13" height="2" fill="#1A3F66"/>
<rect y="106" width="13" height="2" fill="#265A7B"/>
<rect y="102" width="13" height="2" fill="#4D87A9"/>
<rect y="108" width="13" height="2" fill="#4D87A9"/>
<rect y="110" width="13" height="2" fill="#1A3F66"/>
<rect y="114" width="13" height="2" fill="#1A3F66"/>
<rect y="116" width="13" height="2" fill="#265A7B"/>
<rect y="112" width="13" height="2" fill="#4D87A9"/>
<rect y="118" width="13" height="2" fill="#4D87A9"/>
<rect y="120" width="13" height="2" fill="#1A3F66"/>
<rect y="124" width="13" height="2" fill="#1A3F66"/>
<rect y="126" width="13" height="2" fill="#265A7B"/>
<rect y="122" width="13" height="2" fill="#4D87A9"/>
<rect y="128" width="13" height="2" fill="#4D87A9"/>
<rect y="130" width="13" height="2" fill="#1A3F66"/>
<rect y="134" width="13" height="2" fill="#1A3F66"/>
<rect y="136" width="13" height="2" fill="#265A7B"/>
<rect y="132" width="13" height="2" fill="#4D87A9"/>
<rect y="138" width="13" height="2" fill="#4D87A9"/>
<rect y="140" width="13" height="2" fill="#1A3F66"/>
<rect y="144" width="13" height="2" fill="#1A3F66"/>
<rect y="146" width="13" height="2" fill="#265A7B"/>
<rect y="142" width="13" height="2" fill="#4D87A9"/>
<rect y="148" width="13" height="2" fill="#4D87A9"/>
<rect y="150" width="13" height="2" fill="#1A3F66"/>
<rect y="154" width="13" height="2" fill="#1A3F66"/>
<rect y="156" width="13" height="2" fill="#265A7B"/>
<rect y="152" width="13" height="2" fill="#4D87A9"/>
<rect y="158" width="13" height="2" fill="#4D87A9"/>
<rect y="160" width="13" height="2" fill="#1A3F66"/>
<rect y="164" width="13" height="2" fill="#1A3F66"/>
<rect y="166" width="13" height="2" fill="#265A7B"/>
<rect y="162" width="13" height="2" fill="#4D87A9"/>
<rect y="168" width="13" height="2" fill="#4D87A9"/>
<rect y="170" width="13" height="2" fill="#1A3F66"/>
<rect y="174" width="13" height="2" fill="#1A3F66"/>
<rect y="176" width="13" height="2" fill="#265A7B"/>
<rect y="172" width="13" height="2" fill="#4D87A9"/>
<rect y="178" width="13" height="2" fill="#4D87A9"/>
<rect y="180" width="13" height="2" fill="#1A3F66"/>
<rect y="184" width="13" height="2" fill="#1A3F66"/>
<rect y="186" width="13" height="2" fill="#265A7B"/>
<rect y="182" width="13" height="2" fill="#4D87A9"/>
<rect y="188" width="13" height="2" fill="#4D87A9"/>
<rect y="190" width="13" height="2" fill="#1A3F66"/>
<rect y="194" width="13" height="2" fill="#1A3F66"/>
<rect y="196" width="13" height="2" fill="#265A7B"/>
<rect y="192" width="13" height="2" fill="#4D87A9"/>
<rect y="198" width="13" height="2" fill="#4D87A9"/>
<rect y="200" width="13" height="2" fill="#1A3F66"/>
<rect y="204" width="13" height="2" fill="#1A3F66"/>
<rect y="206" width="13" height="2" fill="#265A7B"/>
<rect y="202" width="13" height="2" fill="#4D87A9"/>
<rect y="208" width="13" height="2" fill="#4D87A9"/>
<rect y="210" width="13" height="2" fill="#1A3F66"/>
<rect y="214" width="13" height="2" fill="#1A3F66"/>
<rect y="216" width="13" height="2" fill="#265A7B"/>
<rect y="212" width="13" height="2" fill="#4D87A9"/>
<rect y="218" width="13" height="2" fill="#4D87A9"/>
<rect y="220" width="13" height="2" fill="#1A3F66"/>
<rect y="224" width="13" height="2" fill="#1A3F66"/>
<rect y="226" width="13" height="2" fill="#265A7B"/>
<rect y="222" width="13" height="2" fill="#4D87A9"/>
<rect y="228" width="13" height="2" fill="#4D87A9"/>
<rect y="230" width="13" height="2" fill="#1A3F66"/>
<rect y="234" width="13" height="2" fill="#1A3F66"/>
<rect y="236" width="13" height="2" fill="#265A7B"/>
<rect y="232" width="13" height="2" fill="#4D87A9"/>
<rect y="238" width="13" height="2" fill="#4D87A9"/>
<rect y="240" width="13" height="2" fill="#1A3F66"/>
<rect y="244" width="13" height="2" fill="#1A3F66"/>
<rect y="246" width="13" height="2" fill="#265A7B"/>
<rect y="242" width="13" height="2" fill="#4D87A9"/>
<rect y="248" width="13" height="2" fill="#4D87A9"/>
<rect y="250" width="13" height="2" fill="#1A3F66"/>
<rect y="254" width="13" height="2" fill="#1A3F66"/>
<rect y="256" width="13" height="2" fill="#265A7B"/>
<rect y="252" width="13" height="2" fill="#4D87A9"/>
<rect y="258" width="13" height="2" fill="#4D87A9"/>
<rect y="260" width="13" height="2" fill="#1A3F66"/>
<rect y="264" width="13" height="2" fill="#1A3F66"/>
<rect y="266" width="13" height="2" fill="#265A7B"/>
<rect y="262" width="13" height="2" fill="#4D87A9"/>
<rect y="268" width="13" height="2" fill="#4D87A9"/>
<rect y="270" width="13" height="2" fill="#1A3F66"/>
<rect y="274" width="13" height="2" fill="#1A3F66"/>
<rect y="276" width="13" height="2" fill="#265A7B"/>
<rect y="272" width="13" height="2" fill="#4D87A9"/>
<rect y="278" width="13" height="2" fill="#4D87A9"/>
<rect y="235" width="13" height="2" fill="#1A3F66"/>
<rect y="239" width="13" height="2" fill="#1A3F66"/>
<rect y="241" width="13" height="2" fill="#265A7B"/>
<rect y="237" width="13" height="2" fill="#4D87A9"/>
<rect y="243" width="13" height="2" fill="#4D87A9"/>
<rect y="245" width="13" height="2" fill="#1A3F66"/>
<rect y="249" width="13" height="2" fill="#1A3F66"/>
<rect y="251" width="13" height="2" fill="#265A7B"/>
<rect y="247" width="13" height="2" fill="#4D87A9"/>
<rect y="253" width="13" height="2" fill="#4D87A9"/>
<rect y="255" width="13" height="2" fill="#1A3F66"/>
<rect y="259" width="13" height="2" fill="#1A3F66"/>
<rect y="261" width="13" height="2" fill="#265A7B"/>
<rect y="257" width="13" height="2" fill="#4D87A9"/>
<rect y="263" width="13" height="2" fill="#4D87A9"/>
<rect y="265" width="13" height="2" fill="#1A3F66"/>
<rect y="269" width="13" height="2" fill="#1A3F66"/>
<rect y="271" width="13" height="2" fill="#265A7B"/>
<rect y="267" width="13" height="2" fill="#4D87A9"/>
<rect y="273" width="13" height="2" fill="#4D87A9"/>
<rect y="275" width="13" height="2" fill="#1A3F66"/>
<rect y="279" width="13" height="2" fill="#1A3F66"/>
<rect y="281" width="13" height="2" fill="#265A7B"/>
<rect y="277" width="13" height="2" fill="#4D87A9"/>
<rect y="283" width="13" height="2" fill="#4D87A9"/>
<rect y="285" width="13" height="2" fill="#1A3F66"/>
<rect y="289" width="13" height="2" fill="#1A3F66"/>
<rect y="291" width="13" height="2" fill="#265A7B"/>
<rect y="287" width="13" height="2" fill="#4D87A9"/>
<rect y="293" width="13" height="2" fill="#4D87A9"/>
<rect y="295" width="13" height="2" fill="#1A3F66"/>
<rect y="299" width="13" height="2" fill="#1A3F66"/>
<rect y="301" width="13" height="2" fill="#265A7B"/>
<rect y="297" width="13" height="2" fill="#4D87A9"/>
<rect y="303" width="13" height="2" fill="#4D87A9"/>
<rect y="305" width="13" height="2.00115" fill="#1A3F66"/>
<rect y="309.002" width="13" height="2.00115" fill="#1A3F66"/>
<rect y="311.003" width="13" height="2.00115" fill="#265A7B"/>
<rect y="307.001" width="13" height="2.00115" fill="#4D87A9"/>
<rect y="313.005" width="13" height="2.00115" fill="#4D87A9"/>
<rect y="315.006" width="13" height="2.00115" fill="#1A3F66"/>
<rect y="319.008" width="13" height="2.00115" fill="#1A3F66"/>
<rect y="321.009" width="13" height="2.00115" fill="#265A7B"/>
<rect y="317.007" width="13" height="2.00115" fill="#4D87A9"/>
<rect y="323.01" width="13" height="2.00115" fill="#4D87A9"/>
<rect y="325.012" width="13" height="2.00115" fill="#1A3F66"/>
<rect y="329.014" width="13" height="2.00115" fill="#1A3F66"/>
<rect y="331.015" width="13" height="2.00115" fill="#265A7B"/>
<rect y="327.013" width="13" height="2.00115" fill="#4D87A9"/>
<rect y="333.016" width="13" height="2.00115" fill="#4D87A9"/>
<rect y="335.017" width="13" height="2.00115" fill="#1A3F66"/>
<rect y="339.02" width="13" height="2.00115" fill="#1A3F66"/>
<rect y="341.021" width="13" height="2.00115" fill="#265A7B"/>
<rect y="337.018" width="13" height="2.00115" fill="#4D87A9"/>
<rect y="343.022" width="13" height="2.00115" fill="#4D87A9"/>
<rect y="345.023" width="13" height="2.00115" fill="#1A3F66"/>
<rect y="349.025" width="13" height="2.00115" fill="#1A3F66"/>
<rect y="351.026" width="13" height="2.00115" fill="#265A7B"/>
<rect y="347.024" width="13" height="2.00115" fill="#4D87A9"/>
<rect y="353.028" width="13" height="2.00115" fill="#4D87A9"/>
<rect y="355.029" width="13" height="2.00115" fill="#1A3F66"/>
<rect y="359.031" width="13" height="2.00115" fill="#1A3F66"/>
<rect y="361.032" width="13" height="2.00115" fill="#265A7B"/>
<rect y="357.03" width="13" height="2.00115" fill="#4D87A9"/>
<rect y="363.033" width="13" height="2.00115" fill="#4D87A9"/>
<rect y="365.035" width="13" height="2.00115" fill="#1A3F66"/>
<rect y="369.037" width="13" height="2.00115" fill="#1A3F66"/>
<rect y="371.038" width="13" height="2.00115" fill="#265A7B"/>
<rect y="367.036" width="13" height="2.00115" fill="#4D87A9"/>
<rect y="373.039" width="13" height="2.00115" fill="#4D87A9"/>
<rect y="375.04" width="13" height="2.00115" fill="#1A3F66"/>
<rect y="379.043" width="13" height="2.00115" fill="#1A3F66"/>
<rect y="381.044" width="13" height="2.00115" fill="#265A7B"/>
<rect y="377.041" width="13" height="2.00115" fill="#4D87A9"/>
<rect y="383.045" width="13" height="2.00115" fill="#4D87A9"/>
<rect y="385.046" width="13" height="2.00115" fill="#1A3F66"/>
<rect y="389.048" width="13" height="2.00115" fill="#1A3F66"/>
<rect y="391.049" width="13" height="2.00115" fill="#265A7B"/>
<rect y="387.047" width="13" height="2.00115" fill="#4D87A9"/>
<rect y="393.051" width="13" height="2.00115" fill="#4D87A9"/>
<rect y="395.052" width="13" height="2.00115" fill="#1A3F66"/>
<rect y="399.054" width="13" height="2.00115" fill="#1A3F66"/>
<rect y="401.055" width="13" height="2.00115" fill="#265A7B"/>
<rect y="397.053" width="13" height="2.00115" fill="#4D87A9"/>
<rect y="403.056" width="13" height="2.00115" fill="#4D87A9"/>
<rect y="405.058" width="13" height="2.00115" fill="#1A3F66"/>
<rect y="409.06" width="13" height="2.00115" fill="#1A3F66"/>
<rect y="411.061" width="13" height="2.00115" fill="#265A7B"/>
<rect y="407.059" width="13" height="2.00115" fill="#4D87A9"/>
<rect y="413.062" width="13" height="2.00115" fill="#4D87A9"/>
<rect y="415.063" width="13" height="2.00115" fill="#1A3F66"/>
<rect y="419.066" width="13" height="2.00115" fill="#1A3F66"/>
<rect y="421.067" width="13" height="2.00115" fill="#265A7B"/>
<rect y="417.064" width="13" height="2.00115" fill="#4D87A9"/>
<rect y="423.068" width="13" height="2.00115" fill="#4D87A9"/>
<rect y="425.069" width="13" height="2.00115" fill="#1A3F66"/>
<rect y="429.071" width="13" height="2.00115" fill="#1A3F66"/>
<rect y="431.072" width="13" height="2.00115" fill="#265A7B"/>
<rect y="427.07" width="13" height="2.00115" fill="#4D87A9"/>
<rect y="433.074" width="13" height="2.00115" fill="#4D87A9"/>
<rect y="435.075" width="13" height="2.00115" fill="#1A3F66"/>
<rect y="439.077" width="13" height="2.00115" fill="#1A3F66"/>
<rect y="441.078" width="13" height="2.00115" fill="#265A7B"/>
<rect y="437.076" width="13" height="2.00115" fill="#4D87A9"/>
<rect y="443.079" width="13" height="2.00115" fill="#4D87A9"/>
<rect y="445.081" width="13" height="2.00115" fill="#1A3F66"/>
<rect y="449.083" width="13" height="2.00115" fill="#1A3F66"/>
<rect y="451.084" width="13" height="2.00115" fill="#265A7B"/>
<rect y="447.082" width="13" height="2.00115" fill="#4D87A9"/>
<rect y="453.085" width="13" height="2.00115" fill="#4D87A9"/>
<rect y="455.086" width="13" height="2.00115" fill="#1A3F66"/>
<rect y="459.089" width="13" height="2.00115" fill="#1A3F66"/>
<rect y="461.09" width="13" height="2.00115" fill="#265A7B"/>
<rect y="457.087" width="13" height="2.00115" fill="#4D87A9"/>
<rect y="463.091" width="13" height="2.00115" fill="#4D87A9"/>
<rect y="465.092" width="13" height="2.00115" fill="#1A3F66"/>
<rect y="469.094" width="13" height="2.00115" fill="#1A3F66"/>
<rect y="471.095" width="13" height="2.00115" fill="#265A7B"/>
<rect y="467.093" width="13" height="2.00115" fill="#4D87A9"/>
<rect y="473.097" width="13" height="2.00115" fill="#4D87A9"/>
<rect y="475.098" width="13" height="2.00115" fill="#1A3F66"/>
<rect y="479.1" width="13" height="2.00115" fill="#1A3F66"/>
<rect y="481.101" width="13" height="2.00115" fill="#265A7B"/>
<rect y="477.099" width="13" height="2.00115" fill="#4D87A9"/>
<rect y="483.102" width="13" height="2.00115" fill="#4D87A9"/>
<rect y="485.104" width="13" height="2.00115" fill="#1A3F66"/>
<rect y="489.106" width="13" height="2.00115" fill="#1A3F66"/>
<rect y="491.107" width="13" height="2.00115" fill="#265A7B"/>
<rect y="487.105" width="13" height="2.00115" fill="#4D87A9"/>
<rect y="493.108" width="13" height="2.00115" fill="#4D87A9"/>
<rect y="495.109" width="13" height="2.00115" fill="#1A3F66"/>
<rect y="499.112" width="13" height="2.00115" fill="#1A3F66"/>
<rect y="501.113" width="13" height="2.00115" fill="#265A7B"/>
<rect y="497.11" width="13" height="2.00115" fill="#4D87A9"/>
<rect y="503.114" width="13" height="2.00115" fill="#4D87A9"/>
<rect y="505.115" width="13" height="2.00115" fill="#1A3F66"/>
<rect y="509.117" width="13" height="2.00115" fill="#1A3F66"/>
<rect y="511.118" width="13" height="2.00115" fill="#265A7B"/>
<rect y="507.116" width="13" height="2.00115" fill="#4D87A9"/>
<rect y="513.12" width="13" height="2.00115" fill="#4D87A9"/>
<rect y="515.121" width="13" height="2.00115" fill="#1A3F66"/>
<rect y="519.123" width="13" height="2.00115" fill="#1A3F66"/>
<rect y="521.124" width="13" height="2.00115" fill="#265A7B"/>
<rect y="517.122" width="13" height="2.00115" fill="#4D87A9"/>
<rect y="523.125" width="13" height="2.00115" fill="#4D87A9"/>
<rect y="525.127" width="13" height="2.00115" fill="#1A3F66"/>
<rect y="529.129" width="13" height="2.00115" fill="#1A3F66"/>
<rect y="531.13" width="13" height="2.00115" fill="#265A7B"/>
<rect y="527.128" width="13" height="2.00115" fill="#4D87A9"/>
<rect y="533.131" width="13" height="2.00115" fill="#4D87A9"/>
<rect y="535.132" width="13" height="2.00115" fill="#1A3F66"/>
<rect y="539.135" width="13" height="2.00115" fill="#1A3F66"/>
<rect y="541.136" width="13" height="2.00115" fill="#265A7B"/>
<rect y="537.133" width="13" height="2.00115" fill="#4D87A9"/>
<rect y="543.137" width="13" height="2.00115" fill="#4D87A9"/>
<rect y="545.138" width="13" height="2.00115" fill="#1A3F66"/>
<rect y="549.14" width="13" height="2.00115" fill="#1A3F66"/>
<rect y="551.141" width="13" height="2.00115" fill="#265A7B"/>
<rect y="547.139" width="13" height="2.00115" fill="#4D87A9"/>
<rect y="553.143" width="13" height="2.00115" fill="#4D87A9"/>
<rect y="555.144" width="13" height="2.00115" fill="#1A3F66"/>
<rect y="559.146" width="13" height="2.00115" fill="#1A3F66"/>
<rect y="561.147" width="13" height="2.00115" fill="#265A7B"/>
<rect y="557.145" width="13" height="2.00115" fill="#4D87A9"/>
<rect y="563.148" width="13" height="2.00115" fill="#4D87A9"/>
<rect y="565.15" width="13" height="2.00115" fill="#1A3F66"/>
<rect y="569.152" width="13" height="2.00115" fill="#1A3F66"/>
<rect y="571.153" width="13" height="2.00115" fill="#265A7B"/>
<rect y="567.151" width="13" height="2.00115" fill="#4D87A9"/>
<rect y="573.154" width="13" height="2.00115" fill="#4D87A9"/>
<rect y="575.155" width="13" height="2.00115" fill="#1A3F66"/>
<rect y="579.158" width="13" height="2.00115" fill="#1A3F66"/>
<rect y="581.159" width="13" height="2.00115" fill="#265A7B"/>
<rect y="577.156" width="13" height="2.00115" fill="#4D87A9"/>
<rect y="583.16" width="13" height="2.00115" fill="#4D87A9"/>
<rect y="540.135" width="13" height="2.00115" fill="#1A3F66"/>
<rect y="544.137" width="13" height="2.00115" fill="#1A3F66"/>
<rect y="546.139" width="13" height="2.00115" fill="#265A7B"/>
<rect y="542.136" width="13" height="2.00115" fill="#4D87A9"/>
<rect y="548.14" width="13" height="2.00115" fill="#4D87A9"/>
<rect y="550.141" width="13" height="2.00115" fill="#1A3F66"/>
<rect y="554.143" width="13" height="2.00115" fill="#1A3F66"/>
<rect y="556.144" width="13" height="2.00115" fill="#265A7B"/>
<rect y="552.142" width="13" height="2.00115" fill="#4D87A9"/>
<rect y="558.146" width="13" height="2.00115" fill="#4D87A9"/>
<rect y="560.147" width="13" height="2.00115" fill="#1A3F66"/>
<rect y="564.149" width="13" height="2.00115" fill="#1A3F66"/>
<rect y="566.15" width="13" height="2.00115" fill="#265A7B"/>
<rect y="562.148" width="13" height="2.00115" fill="#4D87A9"/>
<rect y="568.151" width="13" height="2.00115" fill="#4D87A9"/>
<rect y="570.152" width="13" height="2.00115" fill="#1A3F66"/>
<rect y="574.155" width="13" height="2.00115" fill="#1A3F66"/>
<rect y="576.156" width="13" height="2.00115" fill="#265A7B"/>
<rect y="572.154" width="13" height="2.00115" fill="#4D87A9"/>
<rect y="578.157" width="13" height="2.00115" fill="#4D87A9"/>
<rect y="585.161" width="13" height="1.73333" fill="#1A3F66"/>
<rect y="588.63" width="13" height="1.73333" fill="#1A3F66"/>
<rect y="590.364" width="13" height="1.73333" fill="#265A7B"/>
<rect y="586.895" width="13" height="1.73333" fill="#4D87A9"/>
<rect y="592.098" width="13" height="1.73333" fill="#4D87A9"/>
<rect y="593.833" width="13" height="1.73333" fill="#1A3F66"/>
<rect y="597.301" width="13" height="1.73333" fill="#1A3F66"/>
<rect y="599.036" width="13" height="1.73333" fill="#265A7B"/>
<rect y="595.567" width="13" height="1.73333" fill="#4D87A9"/>
<rect y="600.77" width="13" height="1.73333" fill="#4D87A9"/>
<rect y="602.504" width="13" height="1.73333" fill="#1A3F66"/>
<rect y="605.973" width="13" height="1.73333" fill="#1A3F66"/>
<rect y="607.707" width="13" height="1.73333" fill="#265A7B"/>
<rect y="604.239" width="13" height="1.73333" fill="#4D87A9"/>
<rect y="609.442" width="13" height="1.73333" fill="#4D87A9"/>
<rect y="611.176" width="13" height="1.73333" fill="#1A3F66"/>
<rect y="614.645" width="13" height="1.73333" fill="#1A3F66"/>
<rect y="616.379" width="13" height="1.73333" fill="#265A7B"/>
<rect y="612.91" width="13" height="1.73333" fill="#4D87A9"/>
<rect y="618.113" width="13" height="1.73333" fill="#4D87A9"/>
<rect y="619.848" width="13" height="1.73333" fill="#1A3F66"/>
<rect y="623.316" width="13" height="1.73333" fill="#1A3F66"/>
<rect y="625.051" width="13" height="1.73333" fill="#265A7B"/>
<rect y="621.582" width="13" height="1.73333" fill="#4D87A9"/>
<rect y="626.785" width="13" height="1.73333" fill="#4D87A9"/>
<rect y="628.519" width="13" height="1.73333" fill="#1A3F66"/>
<rect y="631.988" width="13" height="1.73333" fill="#1A3F66"/>
<rect y="633.722" width="13" height="1.73333" fill="#265A7B"/>
<rect y="630.254" width="13" height="1.73333" fill="#4D87A9"/>
<rect y="635.457" width="13" height="1.73333" fill="#4D87A9"/>
<rect y="637.191" width="13" height="1.73333" fill="#1A3F66"/>
<rect y="640.66" width="13" height="1.73333" fill="#1A3F66"/>
<rect y="642.394" width="13" height="1.73333" fill="#265A7B"/>
<rect y="638.925" width="13" height="1.73333" fill="#4D87A9"/>
<rect y="644.128" width="13" height="1.73333" fill="#4D87A9"/>
<rect y="645.863" width="13" height="1.73333" fill="#1A3F66"/>
<rect y="649.331" width="13" height="1.73333" fill="#1A3F66"/>
<rect y="651.066" width="13" height="1.73333" fill="#265A7B"/>
<rect y="647.597" width="13" height="1.73333" fill="#4D87A9"/>
<rect y="652.8" width="13" height="1.73333" fill="#4D87A9"/>
<rect y="654.534" width="13" height="1.73333" fill="#1A3F66"/>
<rect y="658.003" width="13" height="1.73333" fill="#1A3F66"/>
<rect y="659.737" width="13" height="1.73333" fill="#265A7B"/>
<rect y="656.269" width="13" height="1.73333" fill="#4D87A9"/>
<rect y="661.472" width="13" height="1.73333" fill="#4D87A9"/>
<rect y="663.206" width="13" height="1.73333" fill="#1A3F66"/>
<rect y="666.675" width="13" height="1.73333" fill="#1A3F66"/>
<rect y="668.409" width="13" height="1.73333" fill="#265A7B"/>
<rect y="664.94" width="13" height="1.73333" fill="#4D87A9"/>
<rect y="670.143" width="13" height="1.73333" fill="#4D87A9"/>
<rect y="671.878" width="13" height="1.73333" fill="#1A3F66"/>
<rect y="675.346" width="13" height="1.73333" fill="#1A3F66"/>
<rect y="677.081" width="13" height="1.73333" fill="#265A7B"/>
<rect y="673.612" width="13" height="1.73333" fill="#4D87A9"/>
<rect y="678.815" width="13" height="1.73333" fill="#4D87A9"/>
<rect y="680.549" width="13" height="1.73333" fill="#1A3F66"/>
<rect y="684.018" width="13" height="1.73333" fill="#1A3F66"/>
<rect y="685.752" width="13" height="1.73333" fill="#265A7B"/>
<rect y="682.284" width="13" height="1.73333" fill="#4D87A9"/>
<rect y="687.487" width="13" height="1.73333" fill="#4D87A9"/>
<rect y="689.221" width="13" height="1.73333" fill="#1A3F66"/>
<rect y="692.69" width="13" height="1.73333" fill="#1A3F66"/>
<rect y="694.424" width="13" height="1.73333" fill="#265A7B"/>
<rect y="690.955" width="13" height="1.73333" fill="#4D87A9"/>
<rect y="696.158" width="13" height="1.73333" fill="#4D87A9"/>
<rect y="697.893" width="13" height="1.73333" fill="#1A3F66"/>
<rect y="701.361" width="13" height="1.73333" fill="#1A3F66"/>
<rect y="703.096" width="13" height="1.73333" fill="#265A7B"/>
<rect y="699.627" width="13" height="1.73333" fill="#4D87A9"/>
<rect y="704.83" width="13" height="1.73333" fill="#4D87A9"/>
<rect y="706.564" width="13" height="1.73333" fill="#1A3F66"/>
<rect y="710.033" width="13" height="1.73333" fill="#1A3F66"/>
<rect y="711.767" width="13" height="1.73333" fill="#265A7B"/>
<rect y="708.299" width="13" height="1.73333" fill="#4D87A9"/>
<rect y="713.502" width="13" height="1.73333" fill="#4D87A9"/>
<rect y="715.236" width="13" height="1.73333" fill="#1A3F66"/>
<rect y="718.704" width="13" height="1.73333" fill="#1A3F66"/>
<rect y="720.439" width="13" height="1.73333" fill="#265A7B"/>
<rect y="716.97" width="13" height="1.73333" fill="#4D87A9"/>
<rect y="722.173" width="13" height="1.73333" fill="#4D87A9"/>
<rect y="723.907" width="13" height="1.73333" fill="#1A3F66"/>
<rect y="727.376" width="13" height="1.73333" fill="#1A3F66"/>
<rect y="729.11" width="13" height="1.73333" fill="#265A7B"/>
<rect y="725.642" width="13" height="1.73333" fill="#4D87A9"/>
<rect y="730.845" width="13" height="1.73333" fill="#4D87A9"/>
<rect y="732.579" width="13" height="1.73333" fill="#1A3F66"/>
<rect y="736.048" width="13" height="1.73333" fill="#1A3F66"/>
<rect y="737.782" width="13" height="1.73333" fill="#265A7B"/>
<rect y="734.313" width="13" height="1.73333" fill="#4D87A9"/>
<rect y="739.516" width="13" height="1.73333" fill="#4D87A9"/>
<rect y="741.251" width="13" height="1.73333" fill="#1A3F66"/>
<rect y="744.719" width="13" height="1.73333" fill="#1A3F66"/>
<rect y="746.454" width="13" height="1.73333" fill="#265A7B"/>
<rect y="742.985" width="13" height="1.73333" fill="#4D87A9"/>
<rect y="748.188" width="13" height="1.73333" fill="#4D87A9"/>
<rect y="749.922" width="13" height="1.73333" fill="#1A3F66"/>
<rect y="753.391" width="13" height="1.73333" fill="#1A3F66"/>
<rect y="755.125" width="13" height="1.73333" fill="#265A7B"/>
<rect y="751.657" width="13" height="1.73333" fill="#4D87A9"/>
<rect y="756.86" width="13" height="1.73333" fill="#4D87A9"/>
<rect y="758.594" width="13" height="1.73333" fill="#1A3F66"/>
<rect y="767.266" width="13" height="1.73333" fill="#1A3F66"/>
<rect y="762.063" width="13" height="1.73333" fill="#1A3F66"/>
<rect y="763.797" width="13" height="1.73333" fill="#265A7B"/>
<rect y="760.328" width="13" height="1.73333" fill="#4D87A9"/>
<rect y="765.531" width="13" height="1.73333" fill="#4D87A9"/>
<rect y="769" width="13" height="2" fill="#4D87A9"/>
</svg>
